# xmcd
#
# Track frame offsets:
#	150
#	20762
#	35352
#	50311
#	66339
#	84112
#
# Disc length: 1380 seconds
#
# Revision: 0
# Processed by: cddbd v1.5.1PL2 Copyright (c) Steve Scherf et al.
# Submitted via: EasyCDDAExtractor 8.2.2.1
#
DISCID=43056206
DTITLE=Mandy Callins
DYEAR=1900
DGENRE=
TTITLE0=Because You Love Me
TTITLE1=Better Things To Do
TTITLE2=Fallin'
TTITLE3=If You Can
TTITLE4=Too Much Information
TTITLE5=Indescribably Blue
EXTD=
EXTT0=
EXTT1=
EXTT2=
EXTT3=
EXTT4=
EXTT5=
PLAYORDER=
